<svg xmlns="http://www.w3.org/2000/svg" viewBox="0 0 520 400" width="520" height="400" font-family="Segoe UI,Arial,sans-serif">
<rect width="520" height="400" fill="#ffffff"/>
<text x="260" y="24" font-size="14.5" font-weight="700" fill="#1d2024" text-anchor="middle">Dual-X Gantry — isometric</text>
<polygon points="300.5,48.9 502.0,165.3 219.5,328.4 18.0,212.0" fill="#eef1f4" stroke="#dfe4e9" stroke-width="1.0" stroke-linejoin="round"/>
<polygon points="411.2,237.4 489.2,282.5 360.1,357.1 282.0,312.0" fill="#e7eaee" stroke="#cfd4da" stroke-width="1.3" stroke-linejoin="round"/>
<polygon points="289.1,68.6 431.0,150.6 431.0,165.3 289.1,83.4" fill="#767d84" stroke="#5a6671" stroke-width="1.3" stroke-linejoin="round"/>
<polygon points="442.4,144.0 431.0,150.6 431.0,165.3 442.4,158.7" fill="#949ca5" stroke="#5a6671" stroke-width="1.3" stroke-linejoin="round"/>
<polygon points="300.5,62.1 442.4,144.0 431.0,150.6 289.1,68.6" fill="#b9c4cf" stroke="#5a6671" stroke-width="1.3" stroke-linejoin="round"/>
<polygon points="424.6,141.1 448.8,155.1 448.8,182.9 424.6,169.0" fill="#84252b" stroke="#6f1f25" stroke-width="1.3" stroke-linejoin="round"/>
<polygon points="472.9,141.1 448.8,155.1 448.8,182.9 472.9,169.0" fill="#a52e36" stroke="#6f1f25" stroke-width="1.3" stroke-linejoin="round"/>
<polygon points="448.8,127.2 472.9,141.1 448.8,155.1 424.6,141.1" fill="#cf3a44" stroke="#6f1f25" stroke-width="1.3" stroke-linejoin="round"/>
<polygon points="87.5,185.0 229.5,266.9 229.5,281.7 87.5,199.7" fill="#767d84" stroke="#5a6671" stroke-width="1.3" stroke-linejoin="round"/>
<polygon points="240.8,260.4 229.5,266.9 229.5,281.7 240.8,275.1" fill="#949ca5" stroke="#5a6671" stroke-width="1.3" stroke-linejoin="round"/>
<polygon points="98.9,178.4 240.8,260.4 229.5,266.9 87.5,185.0" fill="#b9c4cf" stroke="#5a6671" stroke-width="1.3" stroke-linejoin="round"/>
<polygon points="223.1,257.5 247.2,271.4 247.2,299.3 223.1,285.4" fill="#84252b" stroke="#6f1f25" stroke-width="1.3" stroke-linejoin="round"/>
<polygon points="271.4,257.5 247.2,271.4 247.2,299.3 271.4,285.4" fill="#a52e36" stroke="#6f1f25" stroke-width="1.3" stroke-linejoin="round"/>
<polygon points="247.2,243.6 271.4,257.5 247.2,271.4 223.1,257.5" fill="#cf3a44" stroke="#6f1f25" stroke-width="1.3" stroke-linejoin="round"/>
<polygon points="91.8,200.5 101.7,206.3 101.7,217.8 91.8,212.0" fill="#93661d" stroke="#8a5413" stroke-width="1.3" stroke-linejoin="round"/>
<polygon points="111.7,200.5 101.7,206.3 101.7,217.8 111.7,212.0" fill="#b88024" stroke="#8a5413" stroke-width="1.3" stroke-linejoin="round"/>
<polygon points="101.7,194.8 111.7,200.5 101.7,206.3 91.8,200.5" fill="#e6a02e" stroke="#8a5413" stroke-width="1.3" stroke-linejoin="round"/>
<polygon points="195.4,260.4 205.4,266.1 205.4,277.6 195.4,271.8" fill="#93661d" stroke="#8a5413" stroke-width="1.3" stroke-linejoin="round"/>
<polygon points="215.3,260.4 205.4,266.1 205.4,277.6 215.3,271.8" fill="#b88024" stroke="#8a5413" stroke-width="1.3" stroke-linejoin="round"/>
<polygon points="205.4,254.6 215.3,260.4 205.4,266.1 195.4,260.4" fill="#e6a02e" stroke="#8a5413" stroke-width="1.3" stroke-linejoin="round"/>
<polygon points="172.0,288.6 178.4,292.3 178.4,303.0 172.0,299.3" fill="#4c525a" stroke="#3b4148" stroke-width="1.3" stroke-linejoin="round"/>
<polygon points="188.3,286.6 178.4,292.3 178.4,303.0 188.3,297.2" fill="#646b73" stroke="#3b4148" stroke-width="1.3" stroke-linejoin="round"/>
<polygon points="181.9,282.9 188.3,286.6 178.4,292.3 172.0,288.6" fill="#828a93" stroke="#3b4148" stroke-width="1.3" stroke-linejoin="round"/>
<polygon points="99.6,231.3 106.0,235.0 106.0,244.0 99.6,240.3" fill="#4c525a" stroke="#3b4148" stroke-width="1.3" stroke-linejoin="round"/>
<polygon points="148.6,210.4 106.0,235.0 106.0,244.0 148.6,219.4" fill="#646b73" stroke="#3b4148" stroke-width="1.3" stroke-linejoin="round"/>
<polygon points="142.2,206.7 148.6,210.4 106.0,235.0 99.6,231.3" fill="#828a93" stroke="#3b4148" stroke-width="1.3" stroke-linejoin="round"/>
<polygon points="53.8,221.2 58.9,224.1 58.9,230.7 53.8,227.7" fill="#282c31" stroke="#1b1e22" stroke-width="1.3" stroke-linejoin="round"/>
<polygon points="66.0,220.0 58.9,224.1 58.9,230.7 66.0,226.6" fill="#373c42" stroke="#1b1e22" stroke-width="1.3" stroke-linejoin="round"/>
<polygon points="60.9,217.1 66.0,220.0 58.9,224.1 53.8,221.2" fill="#4a5159" stroke="#1b1e22" stroke-width="1.3" stroke-linejoin="round"/>
<polygon points="60.2,224.9 65.3,227.8 65.3,234.4 60.2,231.4" fill="#282c31" stroke="#1b1e22" stroke-width="1.3" stroke-linejoin="round"/>
<polygon points="72.4,223.7 65.3,227.8 65.3,234.4 72.4,230.3" fill="#373c42" stroke="#1b1e22" stroke-width="1.3" stroke-linejoin="round"/>
<polygon points="67.3,220.8 72.4,223.7 65.3,227.8 60.2,224.9" fill="#4a5159" stroke="#1b1e22" stroke-width="1.3" stroke-linejoin="round"/>
<polygon points="66.5,228.6 71.7,231.5 71.7,238.1 66.5,235.1" fill="#282c31" stroke="#1b1e22" stroke-width="1.3" stroke-linejoin="round"/>
<polygon points="78.7,227.4 71.7,231.5 71.7,238.1 78.7,234.0" fill="#373c42" stroke="#1b1e22" stroke-width="1.3" stroke-linejoin="round"/>
<polygon points="73.6,224.5 78.7,227.4 71.7,231.5 66.5,228.6" fill="#4a5159" stroke="#1b1e22" stroke-width="1.3" stroke-linejoin="round"/>
<polygon points="72.9,232.3 78.0,235.2 78.0,241.8 72.9,238.8" fill="#282c31" stroke="#1b1e22" stroke-width="1.3" stroke-linejoin="round"/>
<polygon points="85.1,231.1 78.0,235.2 78.0,241.8 85.1,237.7" fill="#373c42" stroke="#1b1e22" stroke-width="1.3" stroke-linejoin="round"/>
<polygon points="80.0,228.2 85.1,231.1 78.0,235.2 72.9,232.3" fill="#4a5159" stroke="#1b1e22" stroke-width="1.3" stroke-linejoin="round"/>
<polygon points="79.3,235.9 84.4,238.9 84.4,245.4 79.3,242.5" fill="#282c31" stroke="#1b1e22" stroke-width="1.3" stroke-linejoin="round"/>
<polygon points="91.5,234.8 84.4,238.9 84.4,245.4 91.5,241.4" fill="#373c42" stroke="#1b1e22" stroke-width="1.3" stroke-linejoin="round"/>
<polygon points="86.4,231.8 91.5,234.8 84.4,238.9 79.3,235.9" fill="#4a5159" stroke="#1b1e22" stroke-width="1.3" stroke-linejoin="round"/>
<polygon points="85.7,239.6 90.8,242.6 90.8,249.1 85.7,246.2" fill="#282c31" stroke="#1b1e22" stroke-width="1.3" stroke-linejoin="round"/>
<polygon points="97.9,238.5 90.8,242.6 90.8,249.1 97.9,245.0" fill="#373c42" stroke="#1b1e22" stroke-width="1.3" stroke-linejoin="round"/>
<polygon points="92.8,235.5 97.9,238.5 90.8,242.6 85.7,239.6" fill="#4a5159" stroke="#1b1e22" stroke-width="1.3" stroke-linejoin="round"/>
<polygon points="92.1,243.3 97.2,246.3 97.2,252.8 92.1,249.9" fill="#282c31" stroke="#1b1e22" stroke-width="1.3" stroke-linejoin="round"/>
<polygon points="104.3,242.2 97.2,246.3 97.2,252.8 104.3,248.7" fill="#373c42" stroke="#1b1e22" stroke-width="1.3" stroke-linejoin="round"/>
<polygon points="99.2,239.2 104.3,242.2 97.2,246.3 92.1,243.3" fill="#4a5159" stroke="#1b1e22" stroke-width="1.3" stroke-linejoin="round"/>
<polygon points="98.5,247.0 103.6,250.0 103.6,256.5 98.5,253.6" fill="#282c31" stroke="#1b1e22" stroke-width="1.3" stroke-linejoin="round"/>
<polygon points="110.7,245.9 103.6,250.0 103.6,256.5 110.7,252.4" fill="#373c42" stroke="#1b1e22" stroke-width="1.3" stroke-linejoin="round"/>
<polygon points="105.6,242.9 110.7,245.9 103.6,250.0 98.5,247.0" fill="#4a5159" stroke="#1b1e22" stroke-width="1.3" stroke-linejoin="round"/>
<polygon points="104.9,250.7 110.0,253.6 110.0,260.2 104.9,257.2" fill="#282c31" stroke="#1b1e22" stroke-width="1.3" stroke-linejoin="round"/>
<polygon points="117.1,249.5 110.0,253.6 110.0,260.2 117.1,256.1" fill="#373c42" stroke="#1b1e22" stroke-width="1.3" stroke-linejoin="round"/>
<polygon points="112.0,246.6 117.1,249.5 110.0,253.6 104.9,250.7" fill="#4a5159" stroke="#1b1e22" stroke-width="1.3" stroke-linejoin="round"/>
<polygon points="111.3,254.4 116.4,257.3 116.4,263.9 111.3,260.9" fill="#282c31" stroke="#1b1e22" stroke-width="1.3" stroke-linejoin="round"/>
<polygon points="123.5,253.2 116.4,257.3 116.4,263.9 123.5,259.8" fill="#373c42" stroke="#1b1e22" stroke-width="1.3" stroke-linejoin="round"/>
<polygon points="118.3,250.3 123.5,253.2 116.4,257.3 111.3,254.4" fill="#4a5159" stroke="#1b1e22" stroke-width="1.3" stroke-linejoin="round"/>
<polygon points="117.6,258.1 122.7,261.0 122.7,267.6 117.6,264.6" fill="#282c31" stroke="#1b1e22" stroke-width="1.3" stroke-linejoin="round"/>
<polygon points="129.8,256.9 122.7,261.0 122.7,267.6 129.8,263.5" fill="#373c42" stroke="#1b1e22" stroke-width="1.3" stroke-linejoin="round"/>
<polygon points="124.7,254.0 129.8,256.9 122.7,261.0 117.6,258.1" fill="#4a5159" stroke="#1b1e22" stroke-width="1.3" stroke-linejoin="round"/>
<polygon points="124.0,261.8 129.1,264.7 129.1,271.3 124.0,268.3" fill="#282c31" stroke="#1b1e22" stroke-width="1.3" stroke-linejoin="round"/>
<polygon points="136.2,260.6 129.1,264.7 129.1,271.3 136.2,267.2" fill="#373c42" stroke="#1b1e22" stroke-width="1.3" stroke-linejoin="round"/>
<polygon points="131.1,257.7 136.2,260.6 129.1,264.7 124.0,261.8" fill="#4a5159" stroke="#1b1e22" stroke-width="1.3" stroke-linejoin="round"/>
<polygon points="130.4,265.4 135.5,268.4 135.5,274.9 130.4,272.0" fill="#282c31" stroke="#1b1e22" stroke-width="1.3" stroke-linejoin="round"/>
<polygon points="142.6,264.3 135.5,268.4 135.5,274.9 142.6,270.9" fill="#373c42" stroke="#1b1e22" stroke-width="1.3" stroke-linejoin="round"/>
<polygon points="137.5,261.3 142.6,264.3 135.5,268.4 130.4,265.4" fill="#4a5159" stroke="#1b1e22" stroke-width="1.3" stroke-linejoin="round"/>
<polygon points="136.8,269.1 141.9,272.1 141.9,278.6 136.8,275.7" fill="#282c31" stroke="#1b1e22" stroke-width="1.3" stroke-linejoin="round"/>
<polygon points="149.0,268.0 141.9,272.1 141.9,278.6 149.0,274.5" fill="#373c42" stroke="#1b1e22" stroke-width="1.3" stroke-linejoin="round"/>
<polygon points="143.9,265.0 149.0,268.0 141.9,272.1 136.8,269.1" fill="#4a5159" stroke="#1b1e22" stroke-width="1.3" stroke-linejoin="round"/>
<polygon points="143.2,272.8 148.3,275.8 148.3,282.3 143.2,279.4" fill="#282c31" stroke="#1b1e22" stroke-width="1.3" stroke-linejoin="round"/>
<polygon points="155.4,271.7 148.3,275.8 148.3,282.3 155.4,278.2" fill="#373c42" stroke="#1b1e22" stroke-width="1.3" stroke-linejoin="round"/>
<polygon points="150.3,268.7 155.4,271.7 148.3,275.8 143.2,272.8" fill="#4a5159" stroke="#1b1e22" stroke-width="1.3" stroke-linejoin="round"/>
<polygon points="149.6,276.5 154.7,279.5 154.7,286.0 149.6,283.1" fill="#282c31" stroke="#1b1e22" stroke-width="1.3" stroke-linejoin="round"/>
<polygon points="161.8,275.4 154.7,279.5 154.7,286.0 161.8,281.9" fill="#373c42" stroke="#1b1e22" stroke-width="1.3" stroke-linejoin="round"/>
<polygon points="156.7,272.4 161.8,275.4 154.7,279.5 149.6,276.5" fill="#4a5159" stroke="#1b1e22" stroke-width="1.3" stroke-linejoin="round"/>
<polygon points="156.0,280.2 161.1,283.1 161.1,289.7 156.0,286.7" fill="#282c31" stroke="#1b1e22" stroke-width="1.3" stroke-linejoin="round"/>
<polygon points="168.2,279.0 161.1,283.1 161.1,289.7 168.2,285.6" fill="#373c42" stroke="#1b1e22" stroke-width="1.3" stroke-linejoin="round"/>
<polygon points="163.1,276.1 168.2,279.0 161.1,283.1 156.0,280.2" fill="#4a5159" stroke="#1b1e22" stroke-width="1.3" stroke-linejoin="round"/>
<polygon points="162.3,283.9 167.5,286.8 167.5,293.4 162.3,290.4" fill="#282c31" stroke="#1b1e22" stroke-width="1.3" stroke-linejoin="round"/>
<polygon points="174.6,282.7 167.5,286.8 167.5,293.4 174.6,289.3" fill="#373c42" stroke="#1b1e22" stroke-width="1.3" stroke-linejoin="round"/>
<polygon points="169.4,279.8 174.6,282.7 167.5,286.8 162.3,283.9" fill="#4a5159" stroke="#1b1e22" stroke-width="1.3" stroke-linejoin="round"/>
<polygon points="168.7,287.6 173.8,290.5 173.8,297.1 168.7,294.1" fill="#282c31" stroke="#1b1e22" stroke-width="1.3" stroke-linejoin="round"/>
<polygon points="180.9,286.4 173.8,290.5 173.8,297.1 180.9,293.0" fill="#373c42" stroke="#1b1e22" stroke-width="1.3" stroke-linejoin="round"/>
<polygon points="175.8,283.5 180.9,286.4 173.8,290.5 168.7,287.6" fill="#4a5159" stroke="#1b1e22" stroke-width="1.3" stroke-linejoin="round"/>
<polygon points="175.1,291.3 180.2,294.2 180.2,300.8 175.1,297.8" fill="#282c31" stroke="#1b1e22" stroke-width="1.3" stroke-linejoin="round"/>
<polygon points="187.3,290.1 180.2,294.2 180.2,300.8 187.3,296.7" fill="#373c42" stroke="#1b1e22" stroke-width="1.3" stroke-linejoin="round"/>
<polygon points="182.2,287.2 187.3,290.1 180.2,294.2 175.1,291.3" fill="#4a5159" stroke="#1b1e22" stroke-width="1.3" stroke-linejoin="round"/>
<polygon points="53.8,206.4 58.9,209.4 58.9,215.9 53.8,213.0" fill="#282c31" stroke="#1b1e22" stroke-width="1.3" stroke-linejoin="round"/>
<polygon points="66.0,205.3 58.9,209.4 58.9,215.9 66.0,211.9" fill="#373c42" stroke="#1b1e22" stroke-width="1.3" stroke-linejoin="round"/>
<polygon points="60.9,202.3 66.0,205.3 58.9,209.4 53.8,206.4" fill="#4a5159" stroke="#1b1e22" stroke-width="1.3" stroke-linejoin="round"/>
<polygon points="60.2,210.1 65.3,213.1 65.3,219.6 60.2,216.7" fill="#282c31" stroke="#1b1e22" stroke-width="1.3" stroke-linejoin="round"/>
<polygon points="72.4,209.0 65.3,213.1 65.3,219.6 72.4,215.5" fill="#373c42" stroke="#1b1e22" stroke-width="1.3" stroke-linejoin="round"/>
<polygon points="67.3,206.0 72.4,209.0 65.3,213.1 60.2,210.1" fill="#4a5159" stroke="#1b1e22" stroke-width="1.3" stroke-linejoin="round"/>
<polygon points="66.5,213.8 71.7,216.8 71.7,223.3 66.5,220.4" fill="#282c31" stroke="#1b1e22" stroke-width="1.3" stroke-linejoin="round"/>
<polygon points="78.7,212.7 71.7,216.8 71.7,223.3 78.7,219.2" fill="#373c42" stroke="#1b1e22" stroke-width="1.3" stroke-linejoin="round"/>
<polygon points="73.6,209.7 78.7,212.7 71.7,216.8 66.5,213.8" fill="#4a5159" stroke="#1b1e22" stroke-width="1.3" stroke-linejoin="round"/>
<polygon points="72.9,217.5 78.0,220.5 78.0,227.0 72.9,224.1" fill="#282c31" stroke="#1b1e22" stroke-width="1.3" stroke-linejoin="round"/>
<polygon points="85.1,216.4 78.0,220.5 78.0,227.0 85.1,222.9" fill="#373c42" stroke="#1b1e22" stroke-width="1.3" stroke-linejoin="round"/>
<polygon points="80.0,213.4 85.1,216.4 78.0,220.5 72.9,217.5" fill="#4a5159" stroke="#1b1e22" stroke-width="1.3" stroke-linejoin="round"/>
<polygon points="79.3,221.2 84.4,224.1 84.4,230.7 79.3,227.7" fill="#282c31" stroke="#1b1e22" stroke-width="1.3" stroke-linejoin="round"/>
<polygon points="91.5,220.0 84.4,224.1 84.4,230.7 91.5,226.6" fill="#373c42" stroke="#1b1e22" stroke-width="1.3" stroke-linejoin="round"/>
<polygon points="86.4,217.1 91.5,220.0 84.4,224.1 79.3,221.2" fill="#4a5159" stroke="#1b1e22" stroke-width="1.3" stroke-linejoin="round"/>
<polygon points="85.7,224.9 90.8,227.8 90.8,234.4 85.7,231.4" fill="#282c31" stroke="#1b1e22" stroke-width="1.3" stroke-linejoin="round"/>
<polygon points="97.9,223.7 90.8,227.8 90.8,234.4 97.9,230.3" fill="#373c42" stroke="#1b1e22" stroke-width="1.3" stroke-linejoin="round"/>
<polygon points="92.8,220.8 97.9,223.7 90.8,227.8 85.7,224.9" fill="#4a5159" stroke="#1b1e22" stroke-width="1.3" stroke-linejoin="round"/>
<polygon points="92.1,228.6 97.2,231.5 97.2,238.1 92.1,235.1" fill="#282c31" stroke="#1b1e22" stroke-width="1.3" stroke-linejoin="round"/>
<polygon points="104.3,227.4 97.2,231.5 97.2,238.1 104.3,234.0" fill="#373c42" stroke="#1b1e22" stroke-width="1.3" stroke-linejoin="round"/>
<polygon points="99.2,224.5 104.3,227.4 97.2,231.5 92.1,228.6" fill="#4a5159" stroke="#1b1e22" stroke-width="1.3" stroke-linejoin="round"/>
<polygon points="98.5,232.3 103.6,235.2 103.6,241.8 98.5,238.8" fill="#282c31" stroke="#1b1e22" stroke-width="1.3" stroke-linejoin="round"/>
<polygon points="110.7,231.1 103.6,235.2 103.6,241.8 110.7,237.7" fill="#373c42" stroke="#1b1e22" stroke-width="1.3" stroke-linejoin="round"/>
<polygon points="105.6,228.2 110.7,231.1 103.6,235.2 98.5,232.3" fill="#4a5159" stroke="#1b1e22" stroke-width="1.3" stroke-linejoin="round"/>
<polygon points="53.8,221.5 58.9,224.5 58.9,230.4 53.8,227.4" fill="#282c31" stroke="#1b1e22" stroke-width="1.3" stroke-linejoin="round"/>
<polygon points="66.0,220.4 58.9,224.5 58.9,230.4 66.0,226.3" fill="#373c42" stroke="#1b1e22" stroke-width="1.3" stroke-linejoin="round"/>
<polygon points="60.9,217.4 66.0,220.4 58.9,224.5 53.8,221.5" fill="#4a5159" stroke="#1b1e22" stroke-width="1.3" stroke-linejoin="round"/>
<polygon points="51.0,219.2 56.1,222.1 56.1,228.0 51.0,225.1" fill="#282c31" stroke="#1b1e22" stroke-width="1.3" stroke-linejoin="round"/>
<polygon points="63.2,218.0 56.1,222.1 56.1,228.0 63.2,223.9" fill="#373c42" stroke="#1b1e22" stroke-width="1.3" stroke-linejoin="round"/>
<polygon points="58.1,215.1 63.2,218.0 56.1,222.1 51.0,219.2" fill="#4a5159" stroke="#1b1e22" stroke-width="1.3" stroke-linejoin="round"/>
<polygon points="48.8,215.9 53.9,218.8 53.9,224.7 48.8,221.8" fill="#282c31" stroke="#1b1e22" stroke-width="1.3" stroke-linejoin="round"/>
<polygon points="61.0,214.7 53.9,218.8 53.9,224.7 61.0,220.6" fill="#373c42" stroke="#1b1e22" stroke-width="1.3" stroke-linejoin="round"/>
<polygon points="55.9,211.8 61.0,214.7 53.9,218.8 48.8,215.9" fill="#4a5159" stroke="#1b1e22" stroke-width="1.3" stroke-linejoin="round"/>
<polygon points="47.5,212.2 52.7,215.1 52.7,221.0 47.5,218.1" fill="#282c31" stroke="#1b1e22" stroke-width="1.3" stroke-linejoin="round"/>
<polygon points="59.7,211.0 52.7,215.1 52.7,221.0 59.7,216.9" fill="#373c42" stroke="#1b1e22" stroke-width="1.3" stroke-linejoin="round"/>
<polygon points="54.6,208.1 59.7,211.0 52.7,215.1 47.5,212.2" fill="#4a5159" stroke="#1b1e22" stroke-width="1.3" stroke-linejoin="round"/>
<polygon points="47.5,208.9 52.7,211.9 52.7,217.8 47.5,214.8" fill="#282c31" stroke="#1b1e22" stroke-width="1.3" stroke-linejoin="round"/>
<polygon points="59.7,207.8 52.7,211.9 52.7,217.8 59.7,213.7" fill="#373c42" stroke="#1b1e22" stroke-width="1.3" stroke-linejoin="round"/>
<polygon points="54.6,204.8 59.7,207.8 52.7,211.9 47.5,208.9" fill="#4a5159" stroke="#1b1e22" stroke-width="1.3" stroke-linejoin="round"/>
<polygon points="48.8,206.7 53.9,209.6 53.9,215.5 48.8,212.6" fill="#282c31" stroke="#1b1e22" stroke-width="1.3" stroke-linejoin="round"/>
<polygon points="61.0,205.5 53.9,209.6 53.9,215.5 61.0,211.4" fill="#373c42" stroke="#1b1e22" stroke-width="1.3" stroke-linejoin="round"/>
<polygon points="55.9,202.6 61.0,205.5 53.9,209.6 48.8,206.7" fill="#4a5159" stroke="#1b1e22" stroke-width="1.3" stroke-linejoin="round"/>
<polygon points="51.0,205.9 56.1,208.8 56.1,214.8 51.0,211.8" fill="#282c31" stroke="#1b1e22" stroke-width="1.3" stroke-linejoin="round"/>
<polygon points="63.2,204.8 56.1,208.8 56.1,214.8 63.2,210.7" fill="#373c42" stroke="#1b1e22" stroke-width="1.3" stroke-linejoin="round"/>
<polygon points="58.1,201.8 63.2,204.8 56.1,208.8 51.0,205.9" fill="#4a5159" stroke="#1b1e22" stroke-width="1.3" stroke-linejoin="round"/>
<polygon points="53.8,206.8 58.9,209.7 58.9,215.6 53.8,212.7" fill="#282c31" stroke="#1b1e22" stroke-width="1.3" stroke-linejoin="round"/>
<polygon points="66.0,205.6 58.9,209.7 58.9,215.6 66.0,211.5" fill="#373c42" stroke="#1b1e22" stroke-width="1.3" stroke-linejoin="round"/>
<polygon points="60.9,202.7 66.0,205.6 58.9,209.7 53.8,206.8" fill="#4a5159" stroke="#1b1e22" stroke-width="1.3" stroke-linejoin="round"/>
<polygon points="128.7,195.6 145.7,205.5 145.7,218.6 128.7,208.7" fill="#637690" stroke="#3f5f8c" stroke-width="1.3" stroke-linejoin="round"/>
<polygon points="358.6,82.5 145.7,205.5 145.7,218.6 358.6,95.7" fill="#7c94b4" stroke="#3f5f8c" stroke-width="1.3" stroke-linejoin="round"/>
<polygon points="341.6,72.7 358.6,82.5 145.7,205.5 128.7,195.6" fill="#9cb9e2" stroke="#3f5f8c" stroke-width="1.3" stroke-linejoin="round"/>
<polygon points="316.1,107.9 326.0,113.7 326.0,125.2 316.1,119.4" fill="#93661d" stroke="#8a5413" stroke-width="1.3" stroke-linejoin="round"/>
<polygon points="335.9,107.9 326.0,113.7 326.0,125.2 335.9,119.4" fill="#b88024" stroke="#8a5413" stroke-width="1.3" stroke-linejoin="round"/>
<polygon points="326.0,102.2 335.9,107.9 326.0,113.7 316.1,107.9" fill="#e6a02e" stroke="#8a5413" stroke-width="1.3" stroke-linejoin="round"/>
<polygon points="178.4,187.4 188.3,193.2 188.3,204.6 178.4,198.9" fill="#93661d" stroke="#8a5413" stroke-width="1.3" stroke-linejoin="round"/>
<polygon points="198.3,187.4 188.3,193.2 188.3,204.6 198.3,198.9" fill="#b88024" stroke="#8a5413" stroke-width="1.3" stroke-linejoin="round"/>
<polygon points="188.3,181.7 198.3,187.4 188.3,193.2 178.4,187.4" fill="#e6a02e" stroke="#8a5413" stroke-width="1.3" stroke-linejoin="round"/>
<polygon points="233.7,113.7 256.5,126.8 256.5,144.8 233.7,131.7" fill="#444b53" stroke="#3c434b" stroke-width="1.3" stroke-linejoin="round"/>
<polygon points="277.7,114.5 256.5,126.8 256.5,144.8 277.7,132.5" fill="#555e68" stroke="#3c434b" stroke-width="1.3" stroke-linejoin="round"/>
<polygon points="255.0,101.4 277.7,114.5 256.5,126.8 233.7,113.7" fill="#6b7682" stroke="#3c434b" stroke-width="1.3" stroke-linejoin="round"/>
<polygon points="101.0,192.8 125.2,206.7 125.2,234.5 101.0,220.6" fill="#84252b" stroke="#6f1f25" stroke-width="1.3" stroke-linejoin="round"/>
<polygon points="149.3,192.8 125.2,206.7 125.2,234.5 149.3,220.6" fill="#a52e36" stroke="#6f1f25" stroke-width="1.3" stroke-linejoin="round"/>
<polygon points="125.2,178.8 149.3,192.8 125.2,206.7 101.0,192.8" fill="#cf3a44" stroke="#6f1f25" stroke-width="1.3" stroke-linejoin="round"/>
<polygon points="398.4,233.3 435.3,254.6 435.3,275.9 398.4,254.6" fill="#36405a" stroke="#2c3550" stroke-width="1.3" stroke-linejoin="round"/>
<polygon points="441.0,251.3 435.3,254.6 435.3,275.9 441.0,272.7" fill="#475471" stroke="#2c3550" stroke-width="1.3" stroke-linejoin="round"/>
<polygon points="404.1,230.0 441.0,251.3 435.3,254.6 398.4,233.3" fill="#5b6a86" stroke="#2c3550" stroke-width="1.3" stroke-linejoin="round"/>
<polygon points="390.6,237.8 427.5,259.1 427.5,280.4 390.6,259.1" fill="#36405a" stroke="#2c3550" stroke-width="1.3" stroke-linejoin="round"/>
<polygon points="433.2,255.9 427.5,259.1 427.5,280.4 433.2,277.2" fill="#475471" stroke="#2c3550" stroke-width="1.3" stroke-linejoin="round"/>
<polygon points="396.3,234.5 433.2,255.9 427.5,259.1 390.6,237.8" fill="#5b6a86" stroke="#2c3550" stroke-width="1.3" stroke-linejoin="round"/>
<polygon points="382.8,242.3 419.7,263.6 419.7,284.9 382.8,263.6" fill="#36405a" stroke="#2c3550" stroke-width="1.3" stroke-linejoin="round"/>
<polygon points="425.4,260.4 419.7,263.6 419.7,284.9 425.4,281.7" fill="#475471" stroke="#2c3550" stroke-width="1.3" stroke-linejoin="round"/>
<polygon points="388.5,239.1 425.4,260.4 419.7,263.6 382.8,242.3" fill="#5b6a86" stroke="#2c3550" stroke-width="1.3" stroke-linejoin="round"/>
<polygon points="343.7,273.9 387.7,299.3 387.7,311.6 343.7,286.2" fill="#21272e" stroke="#15191e" stroke-width="1.3" stroke-linejoin="round"/>
<polygon points="416.1,282.9 387.7,299.3 387.7,311.6 416.1,295.2" fill="#2c343c" stroke="#15191e" stroke-width="1.3" stroke-linejoin="round"/>
<polygon points="372.1,257.5 416.1,282.9 387.7,299.3 343.7,273.9" fill="#3a454f" stroke="#15191e" stroke-width="1.3" stroke-linejoin="round"/>
<polygon points="303.3,294.8 361.5,328.4 361.5,343.1 303.3,309.5" fill="#8d949b" stroke="#7a828a" stroke-width="1.3" stroke-linejoin="round"/>
<polygon points="391.3,311.2 361.5,328.4 361.5,343.1 391.3,325.9" fill="#a8afb6" stroke="#7a828a" stroke-width="1.3" stroke-linejoin="round"/>
<polygon points="333.1,277.6 391.3,311.2 361.5,328.4 303.3,294.8" fill="#c4cad0" stroke="#7a828a" stroke-width="1.3" stroke-linejoin="round"/>
<line x1="240.8" y1="88.3" x2="348.7" y2="150.6" stroke="#c0202a" stroke-width="3" stroke-linecap="round"/>
<polygon points="240.8,88.3 249.8,88.3 245.3,96.1" fill="#c0202a" stroke="#c0202a" stroke-width="0"/>
<polygon points="348.7,150.6 339.7,150.6 344.2,142.8" fill="#c0202a" stroke="#c0202a" stroke-width="0"/>
<line x1="333.1" y1="59.6" x2="154.3" y2="162.8" stroke="#1f6fd6" stroke-width="2.6" stroke-linecap="round"/>
<polygon points="333.1,59.6 328.6,67.4 324.1,59.6" fill="#1f6fd6" stroke="#1f6fd6" stroke-width="0"/>
<polygon points="154.3,162.8 158.8,155.1 163.3,162.8" fill="#1f6fd6" stroke="#1f6fd6" stroke-width="0"/>
<line x1="372.8" y1="110.4" x2="418.9" y2="115.8" stroke="#9aa3ac" stroke-width="1.1" stroke-linecap="round"/>
<circle cx="372.8" cy="110.4" r="2.2" fill="#9aa3ac"/>
<text x="504.0" y="120.0" font-size="13" font-weight="600" fill="#1d2024" text-anchor="end">X-RIGHT rail</text>
<line x1="448.8" y1="155.1" x2="477.0" y2="194.6" stroke="#9aa3ac" stroke-width="1.1" stroke-linecap="round"/>
<circle cx="448.8" cy="155.1" r="2.2" fill="#9aa3ac"/>
<text x="504.0" y="209.0" font-size="13" font-weight="600" fill="#1d2024" text-anchor="end">X motors</text>
<line x1="255.7" y1="114.1" x2="432.4" y2="149.8" stroke="#9aa3ac" stroke-width="1.1" stroke-linecap="round"/>
<circle cx="255.7" cy="114.1" r="2.2" fill="#9aa3ac"/>
<text x="504.0" y="154.0" font-size="13" font-weight="600" fill="#1d2024" text-anchor="end">Y carriage</text>
<line x1="125.2" y1="192.8" x2="67.3" y2="195.8" stroke="#9aa3ac" stroke-width="1.1" stroke-linecap="round"/>
<circle cx="125.2" cy="192.8" r="2.2" fill="#9aa3ac"/>
<text x="16.0" y="200.0" font-size="13" font-weight="600" fill="#1d2024" text-anchor="start">Y motor</text>
<line x1="164.2" y1="222.7" x2="94.4" y2="299.8" stroke="#9aa3ac" stroke-width="1.1" stroke-linecap="round"/>
<circle cx="164.2" cy="222.7" r="2.2" fill="#9aa3ac"/>
<text x="16.0" y="304.0" font-size="13" font-weight="600" fill="#1d2024" text-anchor="start">X-LEFT rail</text>
<line x1="193.3" y1="196.0" x2="128.2" y2="119.8" stroke="#9aa3ac" stroke-width="1.1" stroke-linecap="round"/>
<circle cx="193.3" cy="196.0" r="2.2" fill="#9aa3ac"/>
<text x="16.0" y="124.0" font-size="13" font-weight="600" fill="#8a5413" text-anchor="start">Y limit switches</text>
<line x1="260.7" y1="129.2" x2="384.9" y2="63.8" stroke="#9aa3ac" stroke-width="1.1" stroke-linecap="round"/>
<circle cx="260.7" cy="129.2" r="2.2" fill="#9aa3ac"/>
<text x="470.0" y="68.0" font-size="13" font-weight="600" fill="#1d2024" text-anchor="end">Y cross-beam</text>
<line x1="411.9" y1="246.8" x2="432.4" y2="251.8" stroke="#9aa3ac" stroke-width="1.1" stroke-linecap="round"/>
<circle cx="411.9" cy="246.8" r="2.2" fill="#9aa3ac"/>
<text x="504.0" y="256.0" font-size="13" font-weight="600" fill="#36405a" text-anchor="end">Drivers ×3</text>
<line x1="332.4" y1="311.6" x2="385.1" y2="329.8" stroke="#9aa3ac" stroke-width="1.1" stroke-linecap="round"/>
<circle cx="332.4" cy="311.6" r="2.2" fill="#9aa3ac"/>
<text x="504.0" y="334.0" font-size="13" font-weight="600" fill="#5a626b" text-anchor="end">24 V power supply</text>
<line x1="365.7" y1="286.6" x2="300.0" y2="361.6" stroke="#9aa3ac" stroke-width="1.1" stroke-linecap="round"/>
<circle cx="365.7" cy="286.6" r="2.2" fill="#9aa3ac"/>
<text x="300.0" y="376.0" font-size="13" font-weight="600" fill="#21272e" text-anchor="middle">FMC4030 controller</text>
<line x1="53.5" y1="212.8" x2="103.9" y2="327.6" stroke="#9aa3ac" stroke-width="1.1" stroke-linecap="round"/>
<circle cx="53.5" cy="212.8" r="2.2" fill="#9aa3ac"/>
<text x="16.0" y="342.0" font-size="13" font-weight="600" fill="#282c31" text-anchor="start">Cable carrier (drag chain)</text>
<text x="354.7" y="142.6" font-size="11.5" font-weight="700" fill="#c0202a" text-anchor="middle">X travel</text>
<text x="148.3" y="176.8" font-size="11.5" font-weight="700" fill="#1f6fd6" text-anchor="end">Y travel</text>
<line x1="58" y1="58" x2="78.3" y2="69.7" stroke="#c0202a" stroke-width="2.2" stroke-linecap="round"/>
<text x="83.3" y="81.7" font-size="12" font-weight="700" fill="#c0202a" text-anchor="middle">X</text>
<line x1="58" y1="58" x2="37.7" y2="69.7" stroke="#1e8e4e" stroke-width="2.2" stroke-linecap="round"/>
<text x="29.7" y="81.7" font-size="12" font-weight="700" fill="#1e8e4e" text-anchor="middle">Y</text>
<line x1="58" y1="58" x2="58" y2="34.6" stroke="#1f6fd6" stroke-width="2.2" stroke-linecap="round"/>
<text x="58" y="30.6" font-size="12" font-weight="700" fill="#1f6fd6" text-anchor="middle">Z</text>
</svg>